<svg width="48" height="48" viewBox="0 0 48 48" fill="none" xmlns="http://www.w3.org/2000/svg">
<g clip-path="url(#clip0_696_5381)">
<path d="M13.714 4.89C16 6.556 17.78 8.83 19.3 11.006L20.184 12.294L21.018 13.524C21.4351 14.1335 21.6135 14.8751 21.5191 15.6076C21.4247 16.3401 21.0641 17.0123 20.506 17.496L16.604 20.394C16.4155 20.5301 16.2828 20.7301 16.2305 20.9566C16.1783 21.1832 16.2101 21.4211 16.32 21.626C17.204 23.232 18.776 25.624 20.576 27.424C22.378 29.224 24.882 30.9 26.6 31.884C26.8154 32.0049 27.0689 32.0387 27.3085 31.9785C27.548 31.9182 27.7554 31.7685 27.888 31.56L30.428 27.694C30.8949 27.0737 31.5838 26.6581 32.3503 26.5344C33.1168 26.4106 33.9015 26.5882 34.54 27.03L35.866 27.948C38.344 29.668 41.006 31.622 43.042 34.228C43.3649 34.6436 43.5703 35.1383 43.6368 35.6603C43.7032 36.1824 43.6284 36.7127 43.42 37.196C41.746 41.102 37.51 44.428 33.104 44.266L32.504 44.232L32.038 44.192L31.522 44.132L30.96 44.056L30.35 43.956C30.2432 43.9367 30.1365 43.9167 30.03 43.896L29.358 43.752C29.2404 43.7262 29.1231 43.6995 29.006 43.672L28.274 43.484L27.504 43.264L26.7 43.004C23.008 41.752 18.322 39.292 13.514 34.484C8.70797 29.678 6.24797 24.992 4.99597 21.3L4.73597 20.496L4.51597 19.726L4.32797 18.994L4.17197 18.302C4.12691 18.0853 4.08491 17.8679 4.04597 17.65L3.94597 17.04L3.86597 16.478L3.80797 15.962L3.76797 15.496L3.73597 14.896C3.57397 10.504 6.93597 6.238 10.824 4.572C11.2919 4.36994 11.8044 4.293 12.311 4.34875C12.8177 4.4045 13.3011 4.59102 13.714 4.89ZM29.984 12.08L30.216 12.106C31.6718 12.3628 33.0089 13.0739 34.0358 14.1374C35.0626 15.2008 35.7264 16.5621 35.932 18.026C36.0053 18.5324 35.8817 19.0476 35.5868 19.4656C35.2918 19.8837 34.8478 20.1728 34.3462 20.2735C33.8446 20.3741 33.3234 20.2787 32.89 20.0069C32.4565 19.7351 32.1437 19.3074 32.016 18.812L31.97 18.582C31.8895 18.0082 31.6446 17.47 31.2648 17.0324C30.8851 16.5948 30.3867 16.2765 29.83 16.116L29.52 16.046C29.0178 15.957 28.5685 15.6795 28.2642 15.2702C27.9598 14.861 27.8233 14.3509 27.8826 13.8443C27.9418 13.3377 28.1924 12.8729 28.583 12.545C28.9736 12.217 29.4748 12.0507 29.984 12.08ZM30 6C33.1826 6 36.2348 7.26429 38.4853 9.51472C40.7357 11.7652 42 14.8174 42 18C41.9994 18.5098 41.8042 19.0001 41.4543 19.3707C41.1043 19.7414 40.6261 19.9645 40.1172 19.9943C39.6083 20.0242 39.1072 19.8587 38.7163 19.5315C38.3254 19.2043 38.0742 18.7402 38.014 18.234L38 18C38.0007 15.9688 37.2284 14.0135 35.8399 12.5311C34.4515 11.0486 32.5508 10.1501 30.524 10.018L30 10C29.4695 10 28.9608 9.78929 28.5858 9.41422C28.2107 9.03914 28 8.53044 28 8C28 7.46957 28.2107 6.96086 28.5858 6.58579C28.9608 6.21072 29.4695 6 30 6Z" fill="#F2994A"/>
</g>
<defs>
<clipPath id="clip0_696_5381">
<rect width="48" height="48" fill="white"/>
</clipPath>
</defs>
</svg>
