<svg width="27" height="21" viewBox="0 0 27 21" fill="none" xmlns="http://www.w3.org/2000/svg">
<path d="M9.06663 20.3333C7.79996 20.3333 6.9444 20.1111 6.49996 19.6667C6.05551 19.2222 5.43329 19 4.63329 19C4.07774 19 3.62796 19.1169 3.28396 19.3507C2.93996 19.5844 2.50085 19.812 1.96663 20.0333C1.52218 20.2111 1.11107 20.1613 0.733293 19.884C0.355515 19.6067 0.166626 19.2116 0.166626 18.6987C0.166626 18.4542 0.255515 18.2209 0.433293 17.9987C0.611071 17.7764 0.855515 17.5987 1.16663 17.4653C1.61107 17.2876 2.0444 17.0542 2.46663 16.7653C2.88885 16.4764 3.59996 16.332 4.59996 16.332C5.88885 16.332 6.75552 16.5542 7.19996 16.9987C7.6444 17.4431 8.25552 17.6653 9.03329 17.6653C9.87774 17.6653 10.5057 17.4431 10.9173 16.9987C11.3288 16.5542 12.1897 16.3324 13.5 16.3333C14.8111 16.3333 15.6724 16.5556 16.084 17C16.4955 17.4444 17.1231 17.6667 17.9666 17.6667C18.7444 17.6667 19.3555 17.4444 19.8 17C20.2444 16.5556 21.1111 16.3333 22.4 16.3333C23.4 16.3333 24.1111 16.4778 24.5333 16.7667C24.9555 17.0556 25.3888 17.2889 25.8333 17.4667C26.1444 17.6 26.3888 17.7778 26.5666 18C26.7444 18.2222 26.8333 18.4556 26.8333 18.7C26.8333 19.2111 26.6502 19.6058 26.284 19.884C25.9177 20.1622 25.512 20.2231 25.0666 20.0667C24.5111 19.8667 24.0613 19.6387 23.7173 19.3827C23.3733 19.1267 22.9231 18.9991 22.3666 19C21.5666 19 20.9444 19.2222 20.5 19.6667C20.0555 20.1111 19.2 20.3333 17.9333 20.3333C16.6222 20.3333 15.7666 20.1111 15.3666 19.6667C14.9666 19.2222 14.3444 19 13.5 19C12.6555 19 12.0333 19.2222 11.6333 19.6667C11.2333 20.1111 10.3777 20.3333 9.06663 20.3333ZM5.16663 15C4.63329 15 4.12218 14.9 3.63329 14.7C3.1444 14.5 2.71107 14.2111 2.33329 13.8333L1.43329 12.9333C1.18885 12.6889 1.06085 12.3831 1.04929 12.016C1.03774 11.6489 1.16574 11.3324 1.43329 11.0667C1.67774 10.8222 1.98351 10.6942 2.35063 10.6827C2.71774 10.6711 3.03418 10.788 3.29996 11.0333L4.19996 11.9333C4.33329 12.0667 4.48351 12.1667 4.65063 12.2333C4.81774 12.3 4.98974 12.3333 5.16663 12.3333H6.83329V7.83333L6.13329 8.36667C5.82218 8.58889 5.49418 8.67245 5.14929 8.61733C4.8044 8.56222 4.52129 8.37867 4.29996 8.06667C4.07774 7.75556 3.98885 7.42756 4.03329 7.08267C4.07774 6.73778 4.25552 6.45467 4.56663 6.23333L12.7 0.233333C12.8111 0.144444 12.9391 0.0835557 13.084 0.0506668C13.2288 0.0177779 13.3675 0.000888889 13.5 0C13.6333 0 13.7724 0.016889 13.9173 0.0506668C14.0622 0.0844446 14.1897 0.145333 14.3 0.233333L22.4333 6.23333C22.7444 6.45556 22.928 6.73911 22.984 7.084C23.04 7.42889 22.9564 7.75644 22.7333 8.06667C22.5111 8.37778 22.2164 8.56133 21.8493 8.61733C21.4822 8.67333 21.1435 8.58978 20.8333 8.36667L20.1666 7.86667V12.3333H21.8333C22.0111 12.3333 22.1835 12.3 22.3506 12.2333C22.5177 12.1667 22.6675 12.0667 22.8 11.9333L23.7 11.0333C23.9444 10.7889 24.2502 10.6667 24.6173 10.6667C24.9844 10.6667 25.3008 10.8 25.5666 11.0667C25.8111 11.3111 25.9333 11.6222 25.9333 12C25.9333 12.3778 25.8111 12.6889 25.5666 12.9333L24.6666 13.8333C24.2888 14.2111 23.8555 14.5 23.3666 14.7C22.8777 14.9 22.3666 15 21.8333 15H5.16663ZM9.49996 12.3333H12.1666V9.66667H14.8333V12.3333H17.5V5.9L13.5 2.96667L9.49996 5.9V12.3333Z" fill="black"/>
</svg>
