<svg width="48" height="48" viewBox="0 0 48 48" fill="none" xmlns="http://www.w3.org/2000/svg">
<g clip-path="url(#clip0_696_5377)">
<path d="M1.03017 23.7128C1.02905 27.7457 2.09078 31.6836 4.10964 35.1544L0.837097 47.0134L13.065 43.8313C16.4471 45.6587 20.2364 46.6162 24.0872 46.6164H24.0973C36.8094 46.6164 47.1573 36.3498 47.1628 23.7308C47.1652 17.616 44.7681 11.8661 40.4128 7.54012C36.0583 3.21454 30.2669 0.831099 24.0964 0.828308C11.3828 0.828308 1.03561 11.0944 1.03036 23.7128" fill="url(#paint0_linear_696_5377)"/>
<path d="M0.206678 23.7053C0.205365 27.8833 1.30515 31.962 3.39599 35.5572L0.00610352 47.8413L12.6725 44.5451C16.1624 46.4337 20.0918 47.4294 24.0902 47.4309H24.1005C37.2686 47.4309 47.9883 36.795 47.9939 23.7243C47.9962 17.3898 45.5128 11.4331 41.0019 6.95219C36.4905 2.47181 30.4921 0.00260465 24.1005 0C10.9301 0 0.211926 10.6344 0.206678 23.7053ZM7.74976 34.938L7.27682 34.1929C5.2887 31.0554 4.23934 27.4298 4.24084 23.7068C4.24515 12.8426 13.1536 4.00372 24.108 4.00372C29.4129 4.00595 34.3984 6.05842 38.1482 9.78233C41.8978 13.5066 43.9611 18.4573 43.9598 23.7228C43.9549 34.587 35.0462 43.427 24.1005 43.427H24.0926C20.5286 43.4251 17.0332 42.4752 13.9848 40.68L13.2594 40.253L5.7429 42.2089L7.74976 34.9379V34.938Z" fill="url(#paint1_linear_696_5377)"/>
<path d="M18.1286 13.795C17.6813 12.8084 17.2106 12.7885 16.7853 12.7712C16.437 12.7563 16.0389 12.7574 15.6411 12.7574C15.2429 12.7574 14.5961 12.9061 14.0493 13.4986C13.5019 14.0917 11.9595 15.525 11.9595 18.4402C11.9595 21.3555 14.0989 24.1728 14.3972 24.5686C14.6958 24.9635 18.5273 31.1373 24.5955 33.5124C29.6387 35.4861 30.665 35.0936 31.7596 34.9946C32.8543 34.896 35.2919 33.5617 35.7892 32.1781C36.2869 30.7946 36.2869 29.6088 36.1377 29.3609C35.9885 29.1141 35.5903 28.9658 34.9933 28.6696C34.3961 28.3732 31.461 26.9397 30.9138 26.742C30.3664 26.5444 29.9685 26.4458 29.5703 27.0391C29.1722 27.6315 28.0289 28.9658 27.6804 29.3609C27.3323 29.757 26.9838 29.8063 26.387 29.51C25.7896 29.2127 23.8669 28.5877 21.5858 26.5693C19.811 24.9987 18.6128 23.0592 18.2645 22.4659C17.9162 21.8735 18.2272 21.5524 18.5266 21.2571C18.7948 20.9916 19.1238 20.5652 19.4226 20.2194C19.7203 19.8733 19.8196 19.6264 20.0187 19.2313C20.2179 18.8357 20.1182 18.4897 19.9692 18.1933C19.8196 17.8969 18.6595 14.9665 18.1286 13.795Z" fill="white"/>
</g>
<defs>
<linearGradient id="paint0_linear_696_5377" x1="2317.12" y1="4619.34" x2="2317.12" y2="0.828308" gradientUnits="userSpaceOnUse">
<stop stop-color="#1FAF38"/>
<stop offset="1" stop-color="#60D669"/>
</linearGradient>
<linearGradient id="paint1_linear_696_5377" x1="2399.4" y1="4784.13" x2="2399.4" y2="0" gradientUnits="userSpaceOnUse">
<stop stop-color="#F9F9F9"/>
<stop offset="1" stop-color="white"/>
</linearGradient>
<clipPath id="clip0_696_5377">
<rect width="48" height="48" fill="white"/>
</clipPath>
</defs>
</svg>
